<?xml version="1.0" encoding="UTF-8"?>
<!DOCTYPE svg PUBLIC "-//W3C//DTD SVG 1.1//EN" "http://www.w3.org/Graphics/SVG/1.1/DTD/svg11.dtd">
<svg xmlns="http://www.w3.org/2000/svg" version="1.1" width="700px" height="356px" style="shape-rendering:geometricPrecision; text-rendering:geometricPrecision; image-rendering:optimizeQuality; fill-rule:evenodd; clip-rule:evenodd" xmlns:xlink="http://www.w3.org/1999/xlink">
<g><path style="opacity:1" fill="#1e566c" d="M 327.5,27.5 C 324.614,27.3003 322.114,26.3003 320,24.5C 319.966,26.1796 319.799,27.6796 319.5,29C 323.147,31.5808 322.48,33.0808 317.5,33.5C 317.649,34.552 317.483,35.552 317,36.5C 315.273,35.626 313.44,35.7926 311.5,37C 313.839,39.5497 313.172,40.0497 309.5,38.5C 307.465,39.0412 305.465,39.7078 303.5,40.5C 304.325,41.3857 305.325,41.719 306.5,41.5C 289.4,52.8931 271.733,63.5597 253.5,73.5C 253.721,72.2652 254.388,71.2652 255.5,70.5C 254.754,69.2638 254.421,67.9305 254.5,66.5C 258.46,66.2418 261.793,64.7418 264.5,62C 262.983,60.2215 262.149,60.7215 262,63.5C 261.406,59.1816 259.906,58.6816 257.5,62C 255.5,62.6667 253.5,62.6667 251.5,62C 253.645,61.2569 253.811,60.4235 252,59.5C 248.854,61.2533 245.687,61.92 242.5,61.5C 241.833,62.1667 241.167,62.8333 240.5,63.5C 239.107,62.1369 237.441,61.3036 235.5,61C 237.319,60.2597 238.652,59.0931 239.5,57.5C 261.437,43.5231 283.771,30.0231 306.5,17C 307.833,16.3333 309.167,16.3333 310.5,17C 316.231,20.5252 321.897,24.0252 327.5,27.5 Z"/></g>
<g><path style="opacity:1" fill="#195464" d="M 373.5,20.5 C 372.406,22.3594 371.573,24.3594 371,26.5C 370.667,26.1667 370.333,25.8333 370,25.5C 367.285,28.1012 366.785,31.1012 368.5,34.5C 365.15,34.335 361.817,34.5017 358.5,35C 357.577,37.0408 357.244,39.2075 357.5,41.5C 359.759,43.1986 362.092,44.1986 364.5,44.5C 364.833,44.8333 365.167,45.1667 365.5,45.5C 362.587,47.901 362.921,49.2343 366.5,49.5C 366.5,49.8333 366.5,50.1667 366.5,50.5C 363.985,51.164 361.819,52.4974 360,54.5C 358.951,52.8934 357.451,52.2267 355.5,52.5C 355.286,54.1439 355.62,55.6439 356.5,57C 354.522,59.0149 352.688,58.8483 351,56.5C 348.291,57.7055 346.625,56.7055 346,53.5C 344.178,53.9679 342.011,54.3012 339.5,54.5C 339.723,51.8858 338.556,50.2191 336,49.5C 335.667,47.5 335.333,45.5 335,43.5C 328.958,41.5141 326.792,37.5141 328.5,31.5C 326.824,30.2724 326.491,28.9391 327.5,27.5C 333.685,30.1779 339.519,33.5113 345,37.5C 354.307,31.433 363.807,25.7663 373.5,20.5 Z"/></g>
<g><path style="opacity:1" fill="#1b4f60" d="M 433.5,47.5 C 431.775,47.8425 431.275,48.8425 432,50.5C 434.322,52.6568 436.489,54.9901 438.5,57.5C 436.887,59.0879 434.887,60.0879 432.5,60.5C 430.802,59.3192 429.135,59.3192 427.5,60.5C 427.709,61.086 428.043,61.586 428.5,62C 427.301,63.6943 425.968,65.1943 424.5,66.5C 411.528,60.0158 399.195,52.5158 387.5,44C 385.278,43.3054 383.111,42.4721 381,41.5C 375.785,43.523 370.952,46.1896 366.5,49.5C 362.921,49.2343 362.587,47.901 365.5,45.5C 365.167,45.1667 364.833,44.8333 364.5,44.5C 362.092,44.1986 359.759,43.1986 357.5,41.5C 357.244,39.2075 357.577,37.0408 358.5,35C 361.817,34.5017 365.15,34.335 368.5,34.5C 366.785,31.1012 367.285,28.1012 370,25.5C 370.333,25.8333 370.667,26.1667 371,26.5C 371.573,24.3594 372.406,22.3594 373.5,20.5C 376.332,17.9181 379.665,16.7514 383.5,17C 398.337,25.9193 413.337,34.586 428.5,43C 430.618,44.0491 432.284,45.5491 433.5,47.5 Z"/></g>
<g><path style="opacity:1" fill="#1c5067" d="M 327.5,27.5 C 326.491,28.9391 326.824,30.2724 328.5,31.5C 326.792,37.5141 328.958,41.5141 335,43.5C 335.333,45.5 335.667,47.5 336,49.5C 338.556,50.2191 339.723,51.8858 339.5,54.5C 342.011,54.3012 344.178,53.9679 346,53.5C 346.625,56.7055 348.291,57.7055 351,56.5C 352.688,58.8483 354.522,59.0149 356.5,57C 355.62,55.6439 355.286,54.1439 355.5,52.5C 357.451,52.2267 358.951,52.8934 360,54.5C 361.819,52.4974 363.985,51.164 366.5,50.5C 373.901,54.8616 381.235,59.1949 388.5,63.5C 387.504,63.4142 386.671,63.7476 386,64.5C 385.388,61.9683 383.888,61.1349 381.5,62C 383.595,62.5556 383.762,63.0556 382,63.5C 380.5,63 379,62.5 377.5,62C 378.451,61.2825 378.617,60.4491 378,59.5C 375.26,60.2822 372.426,60.7822 369.5,61C 368.354,61.6449 367.354,62.4783 366.5,63.5C 360.849,62.1402 358.183,64.4736 358.5,70.5C 353.633,68.4695 349.133,65.8028 345,62.5C 335.666,68.1784 326.166,73.6784 316.5,79C 314.393,80.2635 313.393,82.0968 313.5,84.5C 313.167,84.5 312.833,84.5 312.5,84.5C 312.768,82.901 312.434,81.5676 311.5,80.5C 312.369,78.283 312.702,75.9496 312.5,73.5C 313.552,73.6495 314.552,73.4828 315.5,73C 311.639,71.6655 311.639,70.4988 315.5,69.5C 316.736,70.2458 318.07,70.5792 319.5,70.5C 320.583,70.5394 321.583,70.8728 322.5,71.5C 324.678,69.051 327.178,67.051 330,65.5C 330.333,66.1667 330.667,66.8333 331,67.5C 332.896,66.3204 334.396,64.8204 335.5,63C 335.095,62.0546 334.428,61.3879 333.5,61C 334.34,59.3335 333.84,59.1669 332,60.5C 330.733,58.5764 330.733,56.9097 332,55.5C 332.667,53.8333 332.667,52.1667 332,50.5C 329.642,47.4806 327.309,44.4806 325,41.5C 318.865,40.5331 312.699,40.5331 306.5,41.5C 305.325,41.719 304.325,41.3857 303.5,40.5C 305.465,39.7078 307.465,39.0412 309.5,38.5C 313.172,40.0497 313.839,39.5497 311.5,37C 313.44,35.7926 315.273,35.626 317,36.5C 317.483,35.552 317.649,34.552 317.5,33.5C 322.48,33.0808 323.147,31.5808 319.5,29C 319.799,27.6796 319.966,26.1796 320,24.5C 322.114,26.3003 324.614,27.3003 327.5,27.5 Z"/></g>
<g><path style="opacity:1" fill="#1b5366" d="M 306.5,41.5 C 312.699,40.5331 318.865,40.5331 325,41.5C 327.309,44.4806 329.642,47.4806 332,50.5C 332.667,52.1667 332.667,53.8333 332,55.5C 330.733,56.9097 330.733,58.5764 332,60.5C 333.84,59.1669 334.34,59.3335 333.5,61C 334.428,61.3879 335.095,62.0546 335.5,63C 334.396,64.8204 332.896,66.3204 331,67.5C 330.667,66.8333 330.333,66.1667 330,65.5C 327.178,67.051 324.678,69.051 322.5,71.5C 321.583,70.8728 320.583,70.5394 319.5,70.5C 319.832,63.9152 317.665,62.9152 313,67.5C 312,66.1667 311,64.8333 310,63.5C 309.586,63.9574 309.086,64.2907 308.5,64.5C 307.676,67.7848 307.176,71.1182 307,74.5C 306.667,73.5 306.333,72.5 306,71.5C 304.566,74.0472 302.9,76.3805 301,78.5C 300.624,75.9899 299.79,73.6565 298.5,71.5C 297.264,72.2458 295.93,72.5792 294.5,72.5C 294.565,72.0618 294.399,71.7284 294,71.5C 293.768,72.7375 293.268,73.7375 292.5,74.5C 292.244,72.2075 292.577,70.0408 293.5,68C 303.5,62 313.5,56 323.5,50C 319.89,48.056 316.557,45.7226 313.5,43C 311.26,42.023 308.927,41.523 306.5,41.5 Z"/></g>
<g><path style="opacity:1" fill="#174c5c" d="M 388.5,63.5 C 391.223,65.2812 394.057,66.9479 397,68.5C 397.878,71.6444 398.045,74.6444 397.5,77.5C 397.5,106.167 397.5,134.833 397.5,163.5C 396.778,163.918 396.278,164.584 396,165.5C 395.667,163.5 395.333,161.5 395,159.5C 394.333,160.833 393.667,160.833 393,159.5C 393.278,155.861 393.278,152.194 393,148.5C 392.071,145.493 390.904,142.493 389.5,139.5C 388.871,132.69 389.538,126.023 391.5,119.5C 389.175,106.326 388.842,92.9924 390.5,79.5C 391.5,79.5 392.5,79.5 393.5,79.5C 393.814,71.0341 391.481,70.2008 386.5,77C 386.833,77.3333 387.167,77.6667 387.5,78C 386.241,78.9234 384.908,79.7568 383.5,80.5C 382.359,81.4255 382.359,82.2588 383.5,83C 380.833,84.3333 380.833,85.6667 383.5,87C 382.217,90.0636 381.55,93.3969 381.5,97C 381.667,100.167 381.833,103.333 382,106.5C 384.982,104.804 386.316,102.137 386,98.5C 385.701,111.505 385.535,124.505 385.5,137.5C 386.58,141.68 387.58,145.846 388.5,150C 388.167,151.833 387.833,153.667 387.5,155.5C 386.167,156.5 384.833,157.5 383.5,158.5C 383.833,159.167 384.167,159.833 384.5,160.5C 383.3,161.292 381.967,161.292 380.5,160.5C 378.664,134.875 378.331,109.208 379.5,83.5C 379.167,83.1667 378.833,82.8333 378.5,82.5C 377.833,89.6553 377.167,96.6553 376.5,103.5C 376.666,96.1591 376.5,88.8258 376,81.5C 369.886,78.1977 364.052,74.531 358.5,70.5C 358.183,64.4736 360.849,62.1402 366.5,63.5C 367.354,62.4783 368.354,61.6449 369.5,61C 372.426,60.7822 375.26,60.2822 378,59.5C 378.617,60.4491 378.451,61.2825 377.5,62C 379,62.5 380.5,63 382,63.5C 383.762,63.0556 383.595,62.5556 381.5,62C 383.888,61.1349 385.388,61.9683 386,64.5C 386.671,63.7476 387.504,63.4142 388.5,63.5 Z"/></g>
<g><path style="opacity:1" fill="#1b495b" d="M 433.5,47.5 C 435.434,48.1103 437.101,49.1103 438.5,50.5C 438.389,51.1174 438.056,51.6174 437.5,52C 440.726,52.8719 443.226,54.7052 445,57.5C 446.507,56.4652 448.007,56.6319 449.5,58C 454.462,62.8189 460.129,66.6522 466.5,69.5C 467.821,78.3245 467.821,86.9912 466.5,95.5C 466.499,87.4827 466.166,79.4827 465.5,71.5C 463.396,71.2011 461.396,71.5344 459.5,72.5C 457.758,74.5634 456.091,76.5634 454.5,78.5C 453.542,78.0472 452.708,77.3805 452,76.5C 451.692,77.3081 451.192,77.9747 450.5,78.5C 450.002,77.3966 449.669,76.3966 449.5,75.5C 448.205,76.0983 446.872,76.5983 445.5,77C 446.756,77.4169 447.423,78.2502 447.5,79.5C 439.059,76.3594 431.392,72.026 424.5,66.5C 425.968,65.1943 427.301,63.6943 428.5,62C 428.043,61.586 427.709,61.086 427.5,60.5C 429.135,59.3192 430.802,59.3192 432.5,60.5C 434.887,60.0879 436.887,59.0879 438.5,57.5C 436.489,54.9901 434.322,52.6568 432,50.5C 431.275,48.8425 431.775,47.8425 433.5,47.5 Z"/></g>
<g><path style="opacity:0.004" fill="#e3f3f3" d="M 397.5,77.5 C 397.85,106.887 398.85,136.22 400.5,165.5C 398.821,165.715 397.821,165.048 397.5,163.5C 397.5,134.833 397.5,106.167 397.5,77.5 Z"/></g>
<g><path style="opacity:1" fill="#0f5264" d="M 294.5,79.5 C 297.388,80.0779 300.388,80.0779 303.5,79.5C 306.213,101.789 306.713,124.123 305,146.5C 302.94,142.975 301.273,139.309 300,135.5C 299.641,138.544 298.974,138.878 298,136.5C 297.5,142.825 297.334,149.158 297.5,155.5C 296.778,155.082 296.278,154.416 296,153.5C 295.667,156.833 295.333,160.167 295,163.5C 294.5,135.502 294.333,107.502 294.5,79.5 Z"/></g>
<g><path style="opacity:1" fill="#0f546d" d="M 234.5,127.5 C 235.496,142.324 235.829,157.324 235.5,172.5C 234.566,173.568 234.232,174.901 234.5,176.5C 233.07,176.579 231.736,176.246 230.5,175.5C 228.49,177.171 226.157,177.838 223.5,177.5C 223.19,171.242 223.524,165.076 224.5,159C 223.809,157.933 223.309,156.766 223,155.5C 222.5,146.173 222.334,136.839 222.5,127.5C 224.197,129.305 225.03,131.639 225,134.5C 225.808,127.829 226.641,121.163 227.5,114.5C 228.5,114.167 229.167,113.5 229.5,112.5C 228.215,107.176 227.549,101.676 227.5,96C 227.833,90.8333 228.167,85.6667 228.5,80.5C 229.33,86.4725 229.83,92.4725 230,98.5C 230.5,99.6667 231.333,100.5 232.5,101C 230.316,111.104 230.149,121.271 232,131.5C 232.333,129.833 232.667,128.167 233,126.5C 233.333,127.167 233.667,127.833 234,128.5C 234.399,128.272 234.565,127.938 234.5,127.5 Z"/></g>
<g><path style="opacity:1" fill="#175970" d="M 239.5,57.5 C 238.652,59.0931 237.319,60.2597 235.5,61C 237.441,61.3036 239.107,62.1369 240.5,63.5C 241.167,62.8333 241.833,62.1667 242.5,61.5C 245.687,61.92 248.854,61.2533 252,59.5C 253.811,60.4235 253.645,61.2569 251.5,62C 253.5,62.6667 255.5,62.6667 257.5,62C 259.906,58.6816 261.406,59.1816 262,63.5C 262.149,60.7215 262.983,60.2215 264.5,62C 261.793,64.7418 258.46,66.2418 254.5,66.5C 254.421,67.9305 254.754,69.2638 255.5,70.5C 254.388,71.2652 253.721,72.2652 253.5,73.5C 247.619,74.4011 241.952,75.4011 236.5,76.5C 236.833,77.1667 237.167,77.8333 237.5,78.5C 235.523,94.6601 234.523,110.993 234.5,127.5C 234.565,127.938 234.399,128.272 234,128.5C 233.667,127.833 233.333,127.167 233,126.5C 232.667,128.167 232.333,129.833 232,131.5C 230.149,121.271 230.316,111.104 232.5,101C 231.333,100.5 230.5,99.6667 230,98.5C 229.83,92.4725 229.33,86.4725 228.5,80.5C 228.167,85.6667 227.833,90.8333 227.5,96C 227.549,101.676 228.215,107.176 229.5,112.5C 229.167,113.5 228.5,114.167 227.5,114.5C 226.641,121.163 225.808,127.829 225,134.5C 225.03,131.639 224.197,129.305 222.5,127.5C 221.983,108.836 221.483,90.1694 221,71.5C 220.83,82.6743 220.33,93.6743 219.5,104.5C 219.333,92.8286 219.5,81.1619 220,69.5C 225.607,64.0616 232.107,60.0616 239.5,57.5 Z"/></g>
<g><path style="opacity:1" fill="#104757" d="M 466.5,95.5 C 465.188,117.516 465.188,139.683 466.5,162C 465.983,166.52 465.316,171.02 464.5,175.5C 463.671,170.198 463.171,164.864 463,159.5C 461.75,158.427 460.416,158.427 459,159.5C 457.72,159.387 456.887,158.72 456.5,157.5C 457.841,153.616 458.675,149.616 459,145.5C 459.41,143.332 460.244,141.999 461.5,141.5C 460.981,138.399 460.147,135.399 459,132.5C 458.694,139.429 457.361,146.096 455,152.5C 454.667,151.833 454.333,151.167 454,150.5C 453.167,127.168 452.833,103.834 453,80.5C 453.717,79.9558 454.217,79.2891 454.5,78.5C 456.091,76.5634 457.758,74.5634 459.5,72.5C 461.396,71.5344 463.396,71.2011 465.5,71.5C 466.166,79.4827 466.499,87.4827 466.5,95.5 Z"/></g>
<g><path style="opacity:0.993" fill="#275966" d="M 253.5,73.5 C 248.909,76.0846 244.576,79.0846 240.5,82.5C 241.627,113.652 241.627,144.985 240.5,176.5C 246.646,174.342 252.98,173.008 259.5,172.5C 256.401,173.686 255.067,176.019 255.5,179.5C 252.247,179.562 249.247,180.396 246.5,182C 243.5,182.667 240.5,182.667 237.5,182C 239.363,180.582 239.863,178.749 239,176.5C 236.929,175.897 235.762,174.564 235.5,172.5C 235.829,157.324 235.496,142.324 234.5,127.5C 234.523,110.993 235.523,94.6601 237.5,78.5C 237.167,77.8333 236.833,77.1667 236.5,76.5C 241.952,75.4011 247.619,74.4011 253.5,73.5 Z"/></g>
<g><path style="opacity:1" fill="#105067" d="M 319.5,70.5 C 318.07,70.5792 316.736,70.2458 315.5,69.5C 311.639,70.4988 311.639,71.6655 315.5,73C 314.552,73.4828 313.552,73.6495 312.5,73.5C 312.702,75.9496 312.369,78.283 311.5,80.5C 310.815,82.4144 310.315,84.4144 310,86.5C 309.667,110.5 309.333,134.5 309,158.5C 307.628,159.91 306.795,161.577 306.5,163.5C 304.914,164.413 303.414,164.413 302,163.5C 301.689,164.742 302.189,165.742 303.5,166.5C 301.659,167.23 299.825,167.897 298,168.5C 297.043,164.901 297.543,161.568 299.5,158.5C 298.388,157.735 297.721,156.735 297.5,155.5C 297.334,149.158 297.5,142.825 298,136.5C 298.974,138.878 299.641,138.544 300,135.5C 301.273,139.309 302.94,142.975 305,146.5C 306.713,124.123 306.213,101.789 303.5,79.5C 300.388,80.0779 297.388,80.0779 294.5,79.5C 294.85,76.9592 294.85,74.6258 294.5,72.5C 295.93,72.5792 297.264,72.2458 298.5,71.5C 299.79,73.6565 300.624,75.9899 301,78.5C 302.9,76.3805 304.566,74.0472 306,71.5C 306.333,72.5 306.667,73.5 307,74.5C 307.176,71.1182 307.676,67.7848 308.5,64.5C 309.086,64.2907 309.586,63.9574 310,63.5C 311,64.8333 312,66.1667 313,67.5C 317.665,62.9152 319.832,63.9152 319.5,70.5 Z"/></g>
<g><path style="opacity:1" fill="#2e505d" d="M 438.5,50.5 C 447.618,55.896 456.951,61.0627 466.5,66C 468,66.8333 469.167,68 470,69.5C 470.167,107.838 470.667,146.171 471.5,184.5C 484.763,189.695 497.429,196.028 509.5,203.5C 510.386,204.325 510.719,205.325 510.5,206.5C 489.615,203.465 468.948,199.798 448.5,195.5C 454.441,194.587 460.441,194.254 466.5,194.5C 466.888,192.315 467.888,190.482 469.5,189C 468.004,187.669 466.671,186.169 465.5,184.5C 461.333,187.75 459.333,186.75 459.5,181.5C 455.76,181.241 452.094,181.574 448.5,182.5C 447.205,181.902 445.872,181.402 444.5,181C 446.833,180.667 449.167,180.333 451.5,180C 450.833,179.667 450.167,179.333 449.5,179C 450.824,166.056 451.49,152.89 451.5,139.5C 451.333,126.5 451.167,113.5 451,100.5C 450.5,126.165 450.333,151.831 450.5,177.5C 448.901,177.768 447.568,177.434 446.5,176.5C 447.5,176.5 448.5,176.5 449.5,176.5C 448.2,151.17 448.2,125.836 449.5,100.5C 449.333,94.1667 449.167,87.8333 449,81.5C 448.283,80.9558 447.783,80.2891 447.5,79.5C 447.423,78.2502 446.756,77.4169 445.5,77C 446.872,76.5983 448.205,76.0983 449.5,75.5C 449.669,76.3966 450.002,77.3966 450.5,78.5C 451.192,77.9747 451.692,77.3081 452,76.5C 452.708,77.3805 453.542,78.0472 454.5,78.5C 454.217,79.2891 453.717,79.9558 453,80.5C 452.833,103.834 453.167,127.168 454,150.5C 454.333,151.167 454.667,151.833 455,152.5C 457.361,146.096 458.694,139.429 459,132.5C 460.147,135.399 460.981,138.399 461.5,141.5C 460.244,141.999 459.41,143.332 459,145.5C 458.675,149.616 457.841,153.616 456.5,157.5C 456.887,158.72 457.72,159.387 459,159.5C 460.416,158.427 461.75,158.427 463,159.5C 463.171,164.864 463.671,170.198 464.5,175.5C 465.316,171.02 465.983,166.52 466.5,162C 465.188,139.683 465.188,117.516 466.5,95.5C 467.821,86.9912 467.821,78.3245 466.5,69.5C 460.129,66.6522 454.462,62.8189 449.5,58C 448.007,56.6319 446.507,56.4652 445,57.5C 443.226,54.7052 440.726,52.8719 437.5,52C 438.056,51.6174 438.389,51.1174 438.5,50.5 Z"/></g>
<g><path style="opacity:1" fill="#1f5163" d="M 294.5,72.5 C 294.85,74.6258 294.85,76.9592 294.5,79.5C 294.333,107.502 294.5,135.502 295,163.5C 295.333,160.167 295.667,156.833 296,153.5C 296.278,154.416 296.778,155.082 297.5,155.5C 297.721,156.735 298.388,157.735 299.5,158.5C 297.543,161.568 297.043,164.901 298,168.5C 299.825,167.897 301.659,167.23 303.5,166.5C 302.189,165.742 301.689,164.742 302,163.5C 303.414,164.413 304.914,164.413 306.5,163.5C 307.249,164.531 307.915,165.698 308.5,167C 310.5,167.333 312.5,167.667 314.5,168C 312.744,168.202 311.078,168.702 309.5,169.5C 309.833,169.833 310.167,170.167 310.5,170.5C 312.709,171.106 314.876,171.773 317,172.5C 317.75,171.874 318.584,171.374 319.5,171C 319.167,170.667 318.833,170.333 318.5,170C 319.766,169.691 320.933,169.191 322,168.5C 323,168.833 324,169.167 325,169.5C 328.459,168.867 331.959,168.2 335.5,167.5C 335.863,166.817 336.196,166.15 336.5,165.5C 341.5,165.5 346.5,165.5 351.5,165.5C 351.5,166.833 351.5,168.167 351.5,169.5C 356.833,169.5 362.167,169.5 367.5,169.5C 367.5,170.5 367.5,171.5 367.5,172.5C 369.854,172.838 372.187,173.338 374.5,174C 373.62,175.356 373.286,176.856 373.5,178.5C 370.468,178.495 367.468,178.162 364.5,177.5C 362.933,177.477 361.6,177.977 360.5,179C 355,179.167 349.5,179.333 344,179.5C 338.089,179.475 332.422,178.808 327,177.5C 325.769,178.108 324.436,178.441 323,178.5C 320.333,177.833 317.667,177.167 315,176.5C 310.383,176.619 307.883,178.952 307.5,183.5C 306.448,183.351 305.448,183.517 304.5,184C 306.119,184.236 307.119,185.069 307.5,186.5C 303.404,188.28 299.071,188.946 294.5,188.5C 292.35,189.076 290.35,188.409 288.5,186.5C 291.362,185.694 291.862,184.361 290,182.5C 288.285,185.724 286.285,186.058 284,183.5C 279.378,184.898 278.044,183.565 280,179.5C 284.054,178.008 288.387,176.341 293,174.5C 294.494,175.747 295.994,175.747 297.5,174.5C 296.164,171.528 294.664,171.195 293,173.5C 292.667,173.167 292.333,172.833 292,172.5C 290.54,174.422 288.873,175.089 287,174.5C 286.51,173.207 286.343,171.873 286.5,170.5C 284.8,170.626 283.3,171.293 282,172.5C 277.352,170.727 272.518,170.061 267.5,170.5C 274.907,168.114 282.574,166.28 290.5,165C 291,164.5 291.5,164 292,163.5C 291.416,133.821 291.582,104.155 292.5,74.5C 293.268,73.7375 293.768,72.7375 294,71.5C 294.399,71.7284 294.565,72.0618 294.5,72.5 Z"/></g>
<g><path style="opacity:1" fill="#14495d" d="M 397.5,163.5 C 397.821,165.048 398.821,165.715 400.5,165.5C 404.425,165.43 408.091,166.097 411.5,167.5C 411.5,168.5 411.5,169.5 411.5,170.5C 416.312,172.84 420.646,175.006 424.5,177C 422.336,177.37 420.336,178.204 418.5,179.5C 417.05,180.85 416.383,182.516 416.5,184.5C 411.757,184.814 411.424,183.481 415.5,180.5C 415.291,179.914 414.957,179.414 414.5,179C 408.652,177.806 403.152,175.973 398,173.5C 397.853,174.603 397.02,175.77 395.5,177C 392.982,178.502 390.482,180.002 388,181.5C 384.904,178.632 383.737,179.132 384.5,183C 382.586,184.12 380.752,184.286 379,183.5C 373.222,184.568 367.389,185.235 361.5,185.5C 358.629,185.382 355.962,184.716 353.5,183.5C 340.036,184.667 326.369,186 312.5,187.5C 310.631,187.493 308.964,187.16 307.5,186.5C 307.119,185.069 306.119,184.236 304.5,184C 305.448,183.517 306.448,183.351 307.5,183.5C 307.883,178.952 310.383,176.619 315,176.5C 317.667,177.167 320.333,177.833 323,178.5C 324.436,178.441 325.769,178.108 327,177.5C 332.422,178.808 338.089,179.475 344,179.5C 349.5,179.333 355,179.167 360.5,179C 361.6,177.977 362.933,177.477 364.5,177.5C 367.468,178.162 370.468,178.495 373.5,178.5C 373.286,176.856 373.62,175.356 374.5,174C 372.187,173.338 369.854,172.838 367.5,172.5C 367.5,171.5 367.5,170.5 367.5,169.5C 362.167,169.5 356.833,169.5 351.5,169.5C 351.5,168.167 351.5,166.833 351.5,165.5C 346.5,165.5 341.5,165.5 336.5,165.5C 335.262,165.19 335.262,164.69 336.5,164C 339,163.833 341.5,163.667 344,163.5C 354.459,163.799 364.792,164.799 375,166.5C 376.918,165.458 378.751,164.292 380.5,163C 379.226,162.023 379.226,161.189 380.5,160.5C 381.967,161.292 383.3,161.292 384.5,160.5C 384.167,159.833 383.833,159.167 383.5,158.5C 384.833,157.5 386.167,156.5 387.5,155.5C 387.833,153.667 388.167,151.833 388.5,150C 387.58,145.846 386.58,141.68 385.5,137.5C 385.535,124.505 385.701,111.505 386,98.5C 386.316,102.137 384.982,104.804 382,106.5C 381.833,103.333 381.667,100.167 381.5,97C 381.55,93.3969 382.217,90.0636 383.5,87C 380.833,85.6667 380.833,84.3333 383.5,83C 382.359,82.2588 382.359,81.4255 383.5,80.5C 384.908,79.7568 386.241,78.9234 387.5,78C 387.167,77.6667 386.833,77.3333 386.5,77C 391.481,70.2008 393.814,71.0341 393.5,79.5C 392.5,79.5 391.5,79.5 390.5,79.5C 388.842,92.9924 389.175,106.326 391.5,119.5C 389.538,126.023 388.871,132.69 389.5,139.5C 390.904,142.493 392.071,145.493 393,148.5C 393.278,152.194 393.278,155.861 393,159.5C 393.667,160.833 394.333,160.833 395,159.5C 395.333,161.5 395.667,163.5 396,165.5C 396.278,164.584 396.778,163.918 397.5,163.5 Z"/></g>
<g><path style="opacity:1" fill="#254f5c" d="M 311.5,80.5 C 312.434,81.5676 312.768,82.901 312.5,84.5C 312.169,110.339 312.502,136.005 313.5,161.5C 334.278,161.541 355.278,161.541 376.5,161.5C 375.479,142.185 375.479,122.852 376.5,103.5C 377.167,96.6553 377.833,89.6553 378.5,82.5C 378.833,82.8333 379.167,83.1667 379.5,83.5C 378.331,109.208 378.664,134.875 380.5,160.5C 379.226,161.189 379.226,162.023 380.5,163C 378.751,164.292 376.918,165.458 375,166.5C 364.792,164.799 354.459,163.799 344,163.5C 341.5,163.667 339,163.833 336.5,164C 335.262,164.69 335.262,165.19 336.5,165.5C 336.196,166.15 335.863,166.817 335.5,167.5C 331.959,168.2 328.459,168.867 325,169.5C 324,169.167 323,168.833 322,168.5C 320.933,169.191 319.766,169.691 318.5,170C 318.833,170.333 319.167,170.667 319.5,171C 318.584,171.374 317.75,171.874 317,172.5C 314.876,171.773 312.709,171.106 310.5,170.5C 310.167,170.167 309.833,169.833 309.5,169.5C 311.078,168.702 312.744,168.202 314.5,168C 312.5,167.667 310.5,167.333 308.5,167C 307.915,165.698 307.249,164.531 306.5,163.5C 306.795,161.577 307.628,159.91 309,158.5C 309.333,134.5 309.667,110.5 310,86.5C 310.315,84.4144 310.815,82.4144 311.5,80.5 Z"/></g>
<g><path style="opacity:0.221" fill="#5d747d" d="M 312.5,84.5 C 312.833,84.5 313.167,84.5 313.5,84.5C 313.821,110.189 313.821,135.856 313.5,161.5C 312.502,136.005 312.169,110.339 312.5,84.5 Z"/></g>
<g><path style="opacity:1" fill="#255669" d="M 222.5,127.5 C 222.334,136.839 222.5,146.173 223,155.5C 223.309,156.766 223.809,157.933 224.5,159C 223.524,165.076 223.19,171.242 223.5,177.5C 226.157,177.838 228.49,177.171 230.5,175.5C 231.736,176.246 233.07,176.579 234.5,176.5C 234.232,174.901 234.566,173.568 235.5,172.5C 235.762,174.564 236.929,175.897 239,176.5C 239.863,178.749 239.363,180.582 237.5,182C 240.5,182.667 243.5,182.667 246.5,182C 249.247,180.396 252.247,179.562 255.5,179.5C 255.067,176.019 256.401,173.686 259.5,172.5C 261.905,171.232 264.572,170.565 267.5,170.5C 272.518,170.061 277.352,170.727 282,172.5C 283.3,171.293 284.8,170.626 286.5,170.5C 286.343,171.873 286.51,173.207 287,174.5C 288.873,175.089 290.54,174.422 292,172.5C 292.333,172.833 292.667,173.167 293,173.5C 294.664,171.195 296.164,171.528 297.5,174.5C 295.994,175.747 294.494,175.747 293,174.5C 288.387,176.341 284.054,178.008 280,179.5C 278.044,183.565 279.378,184.898 284,183.5C 286.285,186.058 288.285,185.724 290,182.5C 291.862,184.361 291.362,185.694 288.5,186.5C 290.35,188.409 292.35,189.076 294.5,188.5C 288.299,189.237 281.966,190.071 275.5,191C 281.157,191.499 286.824,191.666 292.5,191.5C 255.101,193.677 217.935,198.677 181,206.5C 178.8,206.107 178.3,205.107 179.5,203.5C 190.475,196.234 202.141,190.401 214.5,186C 216.739,185.12 218.405,183.62 219.5,181.5C 218.351,155.989 218.351,130.323 219.5,104.5C 220.33,93.6743 220.83,82.6743 221,71.5C 221.483,90.1694 221.983,108.836 222.5,127.5 Z"/></g>
<g><path style="opacity:1" fill="#1f4957" d="M 448.5,195.5 C 427.454,193.792 406.454,192.126 385.5,190.5C 371.19,188.603 356.857,188.27 342.5,189.5C 325.839,190.269 309.172,190.936 292.5,191.5C 286.824,191.666 281.157,191.499 275.5,191C 281.966,190.071 288.299,189.237 294.5,188.5C 299.071,188.946 303.404,188.28 307.5,186.5C 308.964,187.16 310.631,187.493 312.5,187.5C 326.369,186 340.036,184.667 353.5,183.5C 355.962,184.716 358.629,185.382 361.5,185.5C 367.389,185.235 373.222,184.568 379,183.5C 380.752,184.286 382.586,184.12 384.5,183C 383.737,179.132 384.904,178.632 388,181.5C 390.482,180.002 392.982,178.502 395.5,177C 397.02,175.77 397.853,174.603 398,173.5C 403.152,175.973 408.652,177.806 414.5,179C 414.957,179.414 415.291,179.914 415.5,180.5C 411.424,183.481 411.757,184.814 416.5,184.5C 416.383,182.516 417.05,180.85 418.5,179.5C 420.336,178.204 422.336,177.37 424.5,177C 420.646,175.006 416.312,172.84 411.5,170.5C 411.5,169.5 411.5,168.5 411.5,167.5C 423.477,169.743 435.143,172.743 446.5,176.5C 447.568,177.434 448.901,177.768 450.5,177.5C 450.333,151.831 450.5,126.165 451,100.5C 451.167,113.5 451.333,126.5 451.5,139.5C 451.49,152.89 450.824,166.056 449.5,179C 450.167,179.333 450.833,179.667 451.5,180C 449.167,180.333 446.833,180.667 444.5,181C 445.872,181.402 447.205,181.902 448.5,182.5C 452.094,181.574 455.76,181.241 459.5,181.5C 459.333,186.75 461.333,187.75 465.5,184.5C 466.671,186.169 468.004,187.669 469.5,189C 467.888,190.482 466.888,192.315 466.5,194.5C 460.441,194.254 454.441,194.587 448.5,195.5 Z"/></g>
<g><path style="opacity:0.161" fill="#6b7c83" d="M 342.5,189.5 C 356.857,188.27 371.19,188.603 385.5,190.5C 371.166,190.197 356.832,189.864 342.5,189.5 Z"/></g>
<g><path style="opacity:0.106" fill="#7f9299" d="M 146.5,255.5 C 146.5,252.5 146.5,249.5 146.5,246.5C 135.815,246.39 125.148,246.723 114.5,247.5C 114.815,251.371 114.482,255.038 113.5,258.5C 113.334,254.486 113.501,250.486 114,246.5C 114.75,245.874 115.584,245.374 116.5,245C 126.883,245.214 137.216,245.381 147.5,245.5C 147.813,249.042 147.479,252.375 146.5,255.5 Z"/></g>
<g><path style="opacity:0.133" fill="#929a9e" d="M 480.5,249.5 C 479.733,248.828 479.066,247.995 478.5,247C 474.183,246.019 470.183,246.519 466.5,248.5C 466.73,245.535 468.397,244.202 471.5,244.5C 474.179,244.936 476.845,245.436 479.5,246C 480.337,247.011 480.67,248.178 480.5,249.5 Z"/></g>
<g><path style="opacity:1" fill="#2d434d" d="M 574.5,294.5 C 574.987,295.473 575.487,296.473 576,297.5C 576.5,280.837 576.667,264.17 576.5,247.5C 577.871,246.213 579.705,245.547 582,245.5C 584.094,245.536 586.094,245.869 588,246.5C 588.5,255.494 588.666,264.494 588.5,273.5C 587.507,265.016 587.174,256.349 587.5,247.5C 585.473,247.338 583.473,247.505 581.5,248C 582.833,248.333 584.167,248.667 585.5,249C 586.059,249.725 586.392,250.558 586.5,251.5C 585.518,277.141 585.185,302.808 585.5,328.5C 583.833,328.5 582.167,328.5 580.5,328.5C 580.034,326.799 580.034,325.299 580.5,324C 578.185,322.891 576.685,321.057 576,318.5C 576.696,322.114 577.53,325.781 578.5,329.5C 571.778,313.514 564.944,297.514 558,281.5C 557.292,280.619 556.458,279.953 555.5,279.5C 555.5,276.833 555.5,274.167 555.5,271.5C 553.876,271.64 552.71,270.973 552,269.5C 551.427,265.152 550.76,260.819 550,256.5C 548.048,254.663 547.048,252.329 547,249.5C 546.5,276.165 546.333,302.831 546.5,329.5C 549.5,329.5 552.5,329.5 555.5,329.5C 554.036,330.16 552.369,330.493 550.5,330.5C 548.359,330.387 546.525,329.72 545,328.5C 544.192,300.803 544.359,273.137 545.5,245.5C 548.777,245.216 551.943,245.549 555,246.5C 560.011,257.854 565.011,269.187 570,280.5C 571.813,285.091 573.313,289.758 574.5,294.5 Z"/></g>
<g><path style="opacity:0.004" fill="#fcfcfc" d="M 576.5,247.5 C 576.667,264.17 576.5,280.837 576,297.5C 575.487,296.473 574.987,295.473 574.5,294.5C 575.167,278.833 575.833,263.167 576.5,247.5 Z"/></g>
<g><path style="opacity:0.904" fill="#15202a" d="M 588.5,273.5 C 588.228,285.233 588.228,296.9 588.5,308.5C 587.509,315.313 587.175,322.313 587.5,329.5C 584.5,329.5 581.5,329.5 578.5,329.5C 577.53,325.781 576.696,322.114 576,318.5C 576.685,321.057 578.185,322.891 580.5,324C 580.034,325.299 580.034,326.799 580.5,328.5C 582.167,328.5 583.833,328.5 585.5,328.5C 585.185,302.808 585.518,277.141 586.5,251.5C 586.392,250.558 586.059,249.725 585.5,249C 584.167,248.667 582.833,248.333 581.5,248C 583.473,247.505 585.473,247.338 587.5,247.5C 587.174,256.349 587.507,265.016 588.5,273.5 Z"/></g>
<g><path style="opacity:1" fill="#234e5e" d="M 305.5,256.5 C 305.943,262.013 306.277,267.346 306.5,272.5C 305.045,276.766 303.545,281.099 302,285.5C 300.797,278.813 299.464,272.146 298,265.5C 297.667,265.167 297.333,264.833 297,264.5C 296.503,267.146 296.336,269.813 296.5,272.5C 295.363,280.354 294.03,288.188 292.5,296C 292.648,297.256 292.982,298.423 293.5,299.5C 292.233,300.087 291.233,300.087 290.5,299.5C 291.585,296.227 291.752,292.894 291,289.5C 290.667,291.167 290.333,292.833 290,294.5C 289.683,292.699 289.016,292.366 288,293.5C 287.245,297.817 288.079,301.817 290.5,305.5C 289.753,305.736 288.92,306.07 288,306.5C 287.211,308.712 287.378,310.712 288.5,312.5C 287.994,318.207 287.161,323.874 286,329.5C 281.878,331.108 277.711,331.442 273.5,330.5C 278.164,302.681 283.664,275.015 290,247.5C 292.041,246.248 294.375,245.581 297,245.5C 299.167,245.833 301.333,246.167 303.5,246.5C 304.802,249.708 305.469,253.041 305.5,256.5 Z"/></g>
<g><path style="opacity:0.051" fill="#92a8ac" d="M 235.5,255.5 C 231.03,256.486 226.363,256.819 221.5,256.5C 221.831,281.006 221.498,305.339 220.5,329.5C 220.5,304.833 220.5,280.167 220.5,255.5C 225.5,255.5 230.5,255.5 235.5,255.5 Z"/></g>
<g><path style="opacity:1" fill="#19424f" d="M 402.5,329.5 C 391.986,329.172 381.653,329.506 371.5,330.5C 370.504,330.586 369.671,330.252 369,329.5C 368.833,328 368.667,326.5 368.5,325C 369.48,298.973 369.813,273.14 369.5,247.5C 374.818,245.783 375.485,246.616 371.5,250C 371.667,250.5 371.833,251 372,251.5C 374.912,249.386 378.079,248.053 381.5,247.5C 381.333,271.502 381.5,295.502 382,319.5C 388.221,321.273 394.721,322.106 401.5,322C 402.435,324.381 402.768,326.881 402.5,329.5 Z"/></g>
<g><path style="opacity:0.18" fill="#828d98" d="M 475.5,281.5 C 474.467,278.014 473.633,274.347 473,270.5C 471.682,276.603 470.516,282.603 469.5,288.5C 469.5,285.5 469.5,282.5 469.5,279.5C 470.578,274.287 471.745,268.954 473,263.5C 474.801,269.37 475.635,275.37 475.5,281.5 Z"/></g>
<g><path style="opacity:1" fill="#20617a" d="M 19.5,279.5 C 18.5111,284.975 18.1778,290.642 18.5,296.5C 18.6665,307.505 18.4998,318.505 18,329.5C 14.6064,330.456 11.1064,330.789 7.5,330.5C 7.21461,305.478 7.54794,280.478 8.5,255.5C 11.9594,254.852 14.7928,253.185 17,250.5C 17.9431,256.163 19.7764,261.497 22.5,266.5C 22,268.5 21.5,270.5 21,272.5C 20.6667,272.167 20.3333,271.833 20,271.5C 19.5026,274.146 19.3359,276.813 19.5,279.5 Z"/></g>
<g><path style="opacity:0.987" fill="#2c5966" d="M 235.5,255.5 C 230.5,255.5 225.5,255.5 220.5,255.5C 220.5,280.167 220.5,304.833 220.5,329.5C 216.434,330.822 212.267,330.822 208,329.5C 207.5,305.169 207.333,280.836 207.5,256.5C 203.154,256.666 198.821,256.499 194.5,256C 193.426,255.261 192.759,254.261 192.5,253C 192.703,250.742 193.036,248.242 193.5,245.5C 207.169,244.332 220.836,244.499 234.5,246C 236.75,248.928 237.084,252.094 235.5,255.5 Z"/></g>
<g><path style="opacity:0.31" fill="#4d6570" d="M 402.5,329.5 C 402.768,326.881 402.435,324.381 401.5,322C 394.721,322.106 388.221,321.273 382,319.5C 381.5,295.502 381.333,271.502 381.5,247.5C 378.079,248.053 374.912,249.386 372,251.5C 371.833,251 371.667,250.5 371.5,250C 375.485,246.616 374.818,245.783 369.5,247.5C 369.881,246.069 370.881,245.236 372.5,245C 375.868,244.457 379.201,244.624 382.5,245.5C 383.556,269.229 383.556,293.062 382.5,317C 383.167,318 383.833,319 384.5,320C 390.162,319.927 395.829,319.927 401.5,320C 403.693,323.038 404.027,326.204 402.5,329.5 Z"/></g>
<g><path style="opacity:1" fill="#153342" d="M 555.5,279.5 C 555.816,296.198 555.816,312.865 555.5,329.5C 552.5,329.5 549.5,329.5 546.5,329.5C 546.333,302.831 546.5,276.165 547,249.5C 547.048,252.329 548.048,254.663 550,256.5C 550.76,260.819 551.427,265.152 552,269.5C 552.71,270.973 553.876,271.64 555.5,271.5C 555.5,274.167 555.5,276.833 555.5,279.5 Z"/></g>
<g><path style="opacity:0.578" fill="#1e4654" d="M 146.5,255.5 C 140.158,255.666 133.825,255.5 127.5,255C 132.833,254.667 138.167,254.333 143.5,254C 146.46,250.749 145.793,248.582 141.5,247.5C 135.07,247.773 128.904,248.773 123,250.5C 120.733,249.065 118.733,249.398 117,251.5C 116.513,277.169 116.013,302.835 115.5,328.5C 124.833,328.5 134.167,328.5 143.5,328.5C 143.5,327.5 143.5,326.5 143.5,325.5C 138.618,326.278 133.618,326.112 128.5,325C 127.62,323.644 127.286,322.144 127.5,320.5C 133.799,321.35 140.132,321.35 146.5,320.5C 146.5,323.5 146.5,326.5 146.5,329.5C 135.5,329.5 124.5,329.5 113.5,329.5C 113.5,305.833 113.5,282.167 113.5,258.5C 114.482,255.038 114.815,251.371 114.5,247.5C 125.148,246.723 135.815,246.39 146.5,246.5C 146.5,249.5 146.5,252.5 146.5,255.5 Z"/></g>
<g><path style="opacity:1" fill="#45626f" d="M 305.5,256.5 C 310.408,275.927 314.741,295.593 318.5,315.5C 316.689,313.615 315.522,311.281 315,308.5C 314.667,309.167 314.333,309.833 314,310.5C 313.855,306.973 313.022,303.64 311.5,300.5C 312.167,299.5 312.833,298.5 313.5,297.5C 312.037,292.592 311.037,287.592 310.5,282.5C 308.408,282.439 306.908,281.439 306,279.5C 303.552,284.841 302.385,290.508 302.5,296.5C 300.5,288.5 298.5,280.5 296.5,272.5C 296.336,269.813 296.503,267.146 297,264.5C 297.333,264.833 297.667,265.167 298,265.5C 299.464,272.146 300.797,278.813 302,285.5C 303.545,281.099 305.045,276.766 306.5,272.5C 306.277,267.346 305.943,262.013 305.5,256.5 Z"/></g>
<g><path style="opacity:0.012" fill="#b9faff" d="M 19.5,279.5 C 19.5569,280.609 19.8902,281.609 20.5,282.5C 19.8333,287.167 19.1667,291.833 18.5,296.5C 18.1778,290.642 18.5111,284.975 19.5,279.5 Z"/></g>
<g><path style="opacity:1" fill="#205a6f" d="M 146.5,255.5 C 140.433,256.185 134.266,256.851 128,257.5C 127.333,265.167 127.333,272.833 128,280.5C 133.116,281.144 138.282,281.811 143.5,282.5C 144.799,285.699 144.799,288.865 143.5,292C 138.177,292.499 132.844,292.666 127.5,292.5C 127.334,301.173 127.5,309.84 128,318.5C 134.266,319.149 140.433,319.815 146.5,320.5C 140.132,321.35 133.799,321.35 127.5,320.5C 127.286,322.144 127.62,323.644 128.5,325C 133.618,326.112 138.618,326.278 143.5,325.5C 143.5,326.5 143.5,327.5 143.5,328.5C 134.167,328.5 124.833,328.5 115.5,328.5C 116.013,302.835 116.513,277.169 117,251.5C 118.733,249.398 120.733,249.065 123,250.5C 128.904,248.773 135.07,247.773 141.5,247.5C 145.793,248.582 146.46,250.749 143.5,254C 138.167,254.333 132.833,254.667 127.5,255C 133.825,255.5 140.158,255.666 146.5,255.5 Z"/></g>
<g><path style="opacity:1" fill="#1b3f4b" d="M 480.5,249.5 C 483.341,262.042 485.675,274.709 487.5,287.5C 488.348,292.529 488.348,297.529 487.5,302.5C 487.997,306.486 488.997,310.319 490.5,314C 488.512,314.18 486.512,314.014 484.5,313.5C 484.831,309.495 483.497,306.162 480.5,303.5C 480.833,302.833 481.167,302.167 481.5,301.5C 479.815,297.403 478.982,293.069 479,288.5C 478.385,285.697 477.218,283.364 475.5,281.5C 475.635,275.37 474.801,269.37 473,263.5C 471.745,268.954 470.578,274.287 469.5,279.5C 469.649,278.448 469.483,277.448 469,276.5C 468.667,278.167 468.333,279.833 468,281.5C 467.593,278.084 467.093,275.084 466.5,272.5C 463.824,277.196 461.657,282.196 460,287.5C 459.506,285.866 459.34,284.199 459.5,282.5C 461.288,270.934 463.621,259.601 466.5,248.5C 470.183,246.519 474.183,246.019 478.5,247C 479.066,247.995 479.733,248.828 480.5,249.5 Z"/></g>
<g><path style="opacity:1" fill="#154f67" d="M 205.5,248.5 C 208.747,249.252 212.081,249.752 215.5,250C 219.666,252.179 219.499,254.013 215,255.5C 215.176,260.554 216.009,265.554 217.5,270.5C 217.192,271.308 216.692,271.975 216,272.5C 214.31,291.175 214.476,309.842 216.5,328.5C 214.5,328.5 212.5,328.5 210.5,328.5C 210.333,306.497 210.5,284.497 211,262.5C 212.415,259.998 212.581,257.332 211.5,254.5C 209.143,254.663 206.81,254.497 204.5,254C 207.23,252.768 207.063,251.935 204,251.5C 202.175,251.943 200.342,252.277 198.5,252.5C 198.5,251.5 198.5,250.5 198.5,249.5C 201.059,249.802 203.393,249.468 205.5,248.5 Z"/></g>
<g><path style="opacity:0.992" fill="#275d72" d="M 39.5,329.5 C 37.5648,330.15 35.5648,330.483 33.5,330.5C 32.5,330.5 31.5,330.5 30.5,330.5C 26.5496,314.644 23.2163,298.644 20.5,282.5C 19.8902,281.609 19.5569,280.609 19.5,279.5C 19.3359,276.813 19.5026,274.146 20,271.5C 20.3333,271.833 20.6667,272.167 21,272.5C 21.5,270.5 22,268.5 22.5,266.5C 19.7764,261.497 17.9431,256.163 17,250.5C 14.7928,253.185 11.9594,254.852 8.5,255.5C 8.12772,252.383 8.12772,249.383 8.5,246.5C 10.0032,245.443 11.6698,244.776 13.5,244.5C 15.0598,245.607 16.5598,245.607 18,244.5C 19.395,244.78 20.5617,245.447 21.5,246.5C 26.0019,266.507 30.5019,286.507 35,306.5C 36.8196,300.89 38.4863,295.223 40,289.5C 41.7323,274.649 44.899,260.149 49.5,246C 53.3612,244.607 57.3612,244.441 61.5,245.5C 62.1389,271.331 62.8055,297.164 63.5,323C 63.1667,325.5 62.8333,328 62.5,330.5C 59.3714,331.747 56.2048,331.747 53,330.5C 51.9528,313.85 51.2862,297.183 51,280.5C 46.6604,296.851 42.827,313.184 39.5,329.5 Z"/></g>
<g><path style="opacity:1" fill="#23444f" d="M 469.5,279.5 C 469.5,282.5 469.5,285.5 469.5,288.5C 469.058,292.154 468.724,295.821 468.5,299.5C 471.833,299.5 475.167,299.5 478.5,299.5C 477.5,293.5 476.5,287.5 475.5,281.5C 477.218,283.364 478.385,285.697 479,288.5C 478.982,293.069 479.815,297.403 481.5,301.5C 481.167,302.167 480.833,302.833 480.5,303.5C 483.497,306.162 484.831,309.495 484.5,313.5C 486.512,314.014 488.512,314.18 490.5,314C 488.997,310.319 487.997,306.486 487.5,302.5C 488.348,297.529 488.348,292.529 487.5,287.5C 491.579,301.544 494.912,315.878 497.5,330.5C 493.116,330.826 488.783,330.492 484.5,329.5C 483.285,322.874 482.285,316.208 481.5,309.5C 476.489,309.334 471.489,309.501 466.5,310C 464.265,316.293 462.765,322.793 462,329.5C 457.934,330.464 453.767,330.797 449.5,330.5C 451.192,314.035 454.525,298.035 459.5,282.5C 459.34,284.199 459.506,285.866 460,287.5C 461.657,282.196 463.824,277.196 466.5,272.5C 467.093,275.084 467.593,278.084 468,281.5C 468.333,279.833 468.667,278.167 469,276.5C 469.483,277.448 469.649,278.448 469.5,279.5 Z"/></g>
<g><path style="opacity:1" fill="#1b4959" d="M 318.5,315.5 C 319.492,320.452 320.158,325.452 320.5,330.5C 316.384,331.011 312.717,331.011 309.5,330.5C 307.641,324.031 305.974,317.531 304.5,311C 299.924,309.524 295.257,309.19 290.5,310C 289.934,310.995 289.267,311.828 288.5,312.5C 287.378,310.712 287.211,308.712 288,306.5C 288.92,306.07 289.753,305.736 290.5,305.5C 288.079,301.817 287.245,297.817 288,293.5C 289.016,292.366 289.683,292.699 290,294.5C 290.333,292.833 290.667,291.167 291,289.5C 291.752,292.894 291.585,296.227 290.5,299.5C 291.233,300.087 292.233,300.087 293.5,299.5C 296.5,299.5 299.5,299.5 302.5,299.5C 302.5,298.5 302.5,297.5 302.5,296.5C 302.385,290.508 303.552,284.841 306,279.5C 306.908,281.439 308.408,282.439 310.5,282.5C 311.037,287.592 312.037,292.592 313.5,297.5C 312.833,298.5 312.167,299.5 311.5,300.5C 313.022,303.64 313.855,306.973 314,310.5C 314.333,309.833 314.667,309.167 315,308.5C 315.522,311.281 316.689,313.615 318.5,315.5 Z"/></g>
<g><path style="opacity:0.012" fill="#6b6b6c" d="M 588.5,308.5 C 588.5,315.833 588.5,323.167 588.5,330.5C 584.958,330.813 581.625,330.479 578.5,329.5C 581.5,329.5 584.5,329.5 587.5,329.5C 587.175,322.313 587.509,315.313 588.5,308.5 Z"/></g>
<g><path style="opacity:1" fill="#2c3940" d="M 669.5,328.5 C 659.532,329.396 649.532,329.729 639.5,329.5C 639.737,328.209 639.404,327.209 638.5,326.5C 638.333,299.831 638.5,273.165 639,246.5C 647.755,245.35 656.588,245.184 665.5,246C 675.396,247.589 680.896,253.422 682,263.5C 682.667,279.167 682.667,294.833 682,310.5C 681.158,317.078 678.324,322.578 673.5,327C 672.255,327.791 670.922,328.291 669.5,328.5 Z M 661.5,256.5 C 664.231,257.298 666.397,258.965 668,261.5C 669.794,279.148 669.96,296.814 668.5,314.5C 667.094,314.973 666.427,315.973 666.5,317.5C 661.993,319.113 657.327,319.779 652.5,319.5C 652.83,298.993 652.497,278.66 651.5,258.5C 651.5,258.167 651.5,257.833 651.5,257.5C 654.728,256.586 658.061,256.253 661.5,256.5 Z"/></g>
<g><path style="opacity:0.008" fill="#a9abac" d="M 651.5,258.5 C 652.497,278.66 652.83,298.993 652.5,319.5C 657.327,319.779 661.993,319.113 666.5,317.5C 665.653,318.966 664.32,319.8 662.5,320C 658.848,320.499 655.182,320.665 651.5,320.5C 651.5,299.833 651.5,279.167 651.5,258.5 Z"/></g>
<g><path style="opacity:0.114" fill="#6d6e77" d="M 661.5,256.5 C 665.505,256.163 668.172,257.83 669.5,261.5C 670.638,278.456 670.805,295.456 670,312.5C 669.722,313.416 669.222,314.082 668.5,314.5C 669.96,296.814 669.794,279.148 668,261.5C 666.397,258.965 664.231,257.298 661.5,256.5 Z"/></g>
<g><path style="opacity:1" fill="#16333a" d="M 669.5,261.5 C 668.172,257.83 665.505,256.163 661.5,256.5C 658.061,256.253 654.728,256.586 651.5,257.5C 650.883,257.389 650.383,257.056 650,256.5C 649.333,277.833 649.333,299.167 650,320.5C 653.892,322.834 658.058,323.167 662.5,321.5C 665.125,322.764 667.792,323.931 670.5,325C 666.098,326.908 661.432,327.741 656.5,327.5C 652.836,327.042 649.336,327.042 646,327.5C 644.739,327.241 643.739,326.574 643,325.5C 640.585,300.213 641.085,275.047 644.5,250C 652.797,249.135 660.964,249.635 669,251.5C 669.414,251.043 669.914,250.709 670.5,250.5C 673.144,252.31 675.644,254.31 678,256.5C 679.018,271.998 679.351,287.664 679,303.5C 678.667,306.167 678.333,308.833 678,311.5C 677.586,311.957 677.086,312.291 676.5,312.5C 674.232,309.702 673.898,306.702 675.5,303.5C 674.5,303.5 673.5,303.5 672.5,303.5C 672.667,290.829 672.5,278.162 672,265.5C 671.8,263.68 670.966,262.347 669.5,261.5 Z"/></g>
<g><path style="opacity:0.186" fill="#7a939e" d="M 146.5,320.5 C 147.479,323.625 147.813,326.958 147.5,330.5C 135.988,330.828 124.654,330.495 113.5,329.5C 124.5,329.5 135.5,329.5 146.5,329.5C 146.5,326.5 146.5,323.5 146.5,320.5 Z"/></g>
<g><path style="opacity:0.225" fill="#778d96" d="M 371.5,330.5 C 381.653,329.506 391.986,329.172 402.5,329.5C 400.782,330.224 398.948,330.891 397,331.5C 388.585,330.517 380.085,330.183 371.5,330.5 Z"/></g>
<g><path style="opacity:0.22" fill="#8d8f94" d="M 638.5,326.5 C 639.404,327.209 639.737,328.209 639.5,329.5C 649.532,329.729 659.532,329.396 669.5,328.5C 668.737,329.268 667.737,329.768 666.5,330C 657.173,330.5 647.839,330.666 638.5,330.5C 638.5,329.167 638.5,327.833 638.5,326.5 Z"/></g>
<g><path style="opacity:0.004" fill="#dae2e2" d="M 39.5,329.5 C 38.8658,330.947 37.6991,331.613 36,331.5C 34.9302,331.472 34.0968,331.139 33.5,330.5C 35.5648,330.483 37.5648,330.15 39.5,329.5 Z"/></g>
</svg>
